<svg xmlns="http://www.w3.org/2000/svg" xmlns:xlink="http://www.w3.org/1999/xlink" width="116.478" height="35.481" viewBox="0 0 116.478 35.481"><defs><linearGradient id="a" x1="0.359" y1="0.974" x2="0.66" y2="0.031" gradientUnits="objectBoundingBox"><stop offset="0" stop-color="#e7e7e7"/><stop offset="0.747" stop-color="#fff"/></linearGradient><linearGradient id="b" x1="0.621" y1="0.983" x2="0.361" y2="0.02" gradientUnits="objectBoundingBox"><stop offset="0" stop-color="#c8c8c8"/><stop offset="0.678" stop-color="#f7f7f7"/></linearGradient></defs><path d="M103.137,64.839,94.79,59.156a5.444,5.444,0,0,0-6.127,0l-10.728,7.3L65.97,58.906a5.444,5.444,0,0,0-5.812,0l-9.427,5.951a5.444,5.444,0,0,0-2.538,4.6v12.69a5.444,5.444,0,0,0,2.538,4.6l9.427,5.951a5.444,5.444,0,0,0,5.812,0l11.94-7.537L88.625,92.35a5.444,5.444,0,0,0,6.045.012l8.417-5.595a5.444,5.444,0,0,0,2.43-4.534V69.339A5.444,5.444,0,0,0,103.137,64.839Z" transform="translate(-48.193 -58.065)" fill="#fff"/><g transform="translate(0 0)"><path d="M60.158,58.906a5.444,5.444,0,0,1,5.812,0l11.965,7.554h0l-10.87,9.3,10.87,9.388h0L65.97,92.705a5.444,5.444,0,0,1-5.812,0l-9.427-5.951a5.444,5.444,0,0,1-2.538-4.6V69.46a5.444,5.444,0,0,1,2.538-4.6Z" transform="translate(-48.193 -58.065)" fill="url(#a)"/><path d="M148.008,101.565v18.693l-11.917-7.476a2.285,2.285,0,0,1,.015-3.882Z" transform="translate(-118.265 -93.171)" fill="#e0e0e0"/><path d="M212.811,92.968l-10.739-7.2L213.1,76.34l-10.979-9.263h0l10.728-7.3a5.444,5.444,0,0,1,6.127,0l8.347,5.682a5.444,5.444,0,0,1,2.38,4.5V82.851a5.444,5.444,0,0,1-2.43,4.534l-8.417,5.595A5.444,5.444,0,0,1,212.811,92.968Z" transform="translate(-172.378 -58.683)" fill="url(#b)"/><path d="M202.326,120.258V101.565l11.358,7.362a2.286,2.286,0,0,1,.015,3.825Z" transform="translate(-172.583 -93.171)" fill="#fff"/></g><path d="M479.689,104.148h3.988V123.09h-4.32a.592.592,0,0,1-.5-.249c-2.908-4.154-5.816-8.308-8.723-12.545a.648.648,0,0,0-.332-.332V123.09h-3.988V104.148h4.32a.592.592,0,0,1,.5.249l8.723,12.3a.649.649,0,0,0,.332.332Z" transform="translate(-385.228 -95.256)" fill="#fff"/><path d="M421.039,104.148h4.486V123.09h-4.486Z" transform="translate(-349.092 -95.256)" fill="#fff"/><path d="M589.823,113.2a4.371,4.371,0,0,0-2.16-1.246,1.4,1.4,0,0,1-.415-.166.3.3,0,0,1,.249-.083,2.924,2.924,0,0,0,1.578-.831,2.091,2.091,0,0,0,.748-1.661V106.3a3.181,3.181,0,0,0-2.077-3.074,10.054,10.054,0,0,0-1.5-.415,20.3,20.3,0,0,0-4.486-.166,8.09,8.09,0,0,0-2.825.5,3.218,3.218,0,0,0-2.243,3.24v2.908a2.081,2.081,0,0,0,.665,1.5,2.99,2.99,0,0,0,1.661.914c.083,0,.166.083.249.083l-.083.083-.249.083a5.209,5.209,0,0,0-2.243,1.329,2.07,2.07,0,0,0-.665,1.412c0,1.329,0,2.659.083,3.988a2.953,2.953,0,0,0,1.911,2.742,9.8,9.8,0,0,0,3.074.748,20.226,20.226,0,0,0,4.486,0,9.8,9.8,0,0,0,3.074-.748,3.064,3.064,0,0,0,1.911-2.825c.083-1.246,0-2.492.083-3.739A3.151,3.151,0,0,0,589.823,113.2Zm-8.889-6.729a1.149,1.149,0,0,1,.914-1,4.82,4.82,0,0,1,2.659,0,1.347,1.347,0,0,1,1,1.329v2.409a1.21,1.21,0,0,1-1.08,1.329,6.293,6.293,0,0,1-2.492,0,1.273,1.273,0,0,1-1.08-1.329v-1.246h0a8.533,8.533,0,0,0,.083-1.5ZM586,118.184a.981.981,0,0,1-1,1.08h-.083a12.276,12.276,0,0,1-3.489,0,.921.921,0,0,1-.914-1.08v-1.828h0v-1.745a.987.987,0,0,1,.831-1l2.243-.249a7.262,7.262,0,0,1,1.329.166,1.1,1.1,0,0,1,1,1.163c.083,1.163.083,2.326.083,3.489Z" transform="translate(-474.177 -94.005)" fill="#fff"/></svg>